<svg xmlns="http://www.w3.org/2000/svg" xmlns:xlink="http://www.w3.org/1999/xlink" width="500" zoomAndPan="magnify" viewBox="0 0 375 374.999991" height="500" preserveAspectRatio="xMidYMid meet" version="1.0"><defs><g/><clipPath id="c03ece083a"><rect x="0" width="132" y="0" height="192"/></clipPath><clipPath id="b3272a2b1d"><path d="M 2.910156 81.324219 L 374.910156 81.324219 L 374.910156 286.074219 L 2.910156 286.074219 Z M 2.910156 81.324219 " clip-rule="nonzero"/></clipPath><clipPath id="4b530fb971"><path d="M 0.910156 0.324219 L 372.769531 0.324219 L 372.769531 205 L 0.910156 205 Z M 0.910156 0.324219 " clip-rule="nonzero"/></clipPath><clipPath id="12694429ee"><rect x="0" width="373" y="0" height="206"/></clipPath><clipPath id="8464ad9060"><path d="M 4 7 L 145 7 L 145 159 L 4 159 Z M 4 7 " clip-rule="nonzero"/></clipPath><clipPath id="a48fac9f37"><rect x="0" width="145" y="0" height="208"/></clipPath><clipPath id="cd9a460b11"><rect x="0" width="130" y="0" height="192"/></clipPath></defs><g transform="matrix(1, 0, 0, 1, 0, 139)"><g clip-path="url(#c03ece083a)"><g fill="#ffde59" fill-opacity="1"><g transform="translate(-3.9377, 145.368808)"><g><path d="M 18.9375 -12.8125 L 18.9375 -126.625 C 18.9375 -131.082031 17.882812 -133.914062 15.78125 -135.125 C 13.675781 -136.34375 10.328125 -136.953125 5.734375 -136.953125 L 5.734375 -139.4375 L 53.359375 -139.4375 L 53.359375 -136.953125 C 48.773438 -136.953125 45.394531 -136.34375 43.21875 -135.125 C 41.050781 -133.914062 39.96875 -131.082031 39.96875 -126.625 L 39.96875 -65.03125 L 95.625 -127 C 98.6875 -130.0625 99.960938 -132.289062 99.453125 -133.6875 C 98.941406 -135.09375 97.347656 -135.988281 94.671875 -136.375 C 91.992188 -136.757812 88.9375 -136.953125 85.5 -136.953125 L 85.5 -139.4375 L 122.21875 -139.4375 L 122.21875 -136.953125 C 118.519531 -136.953125 115.394531 -136.726562 112.84375 -136.28125 C 110.289062 -135.832031 107.929688 -134.9375 105.765625 -133.59375 C 103.597656 -132.257812 101.238281 -130.125 98.6875 -127.1875 L 49.921875 -72.484375 C 52.472656 -68.148438 55.5 -64.898438 59 -62.734375 C 62.507812 -60.566406 65.921875 -59.484375 69.234375 -59.484375 C 72.929688 -59.484375 76.117188 -60.628906 78.796875 -62.921875 L 113.234375 -12.8125 C 116.160156 -8.726562 119.1875 -5.984375 122.3125 -4.578125 C 125.4375 -3.179688 128.785156 -2.484375 132.359375 -2.484375 L 132.359375 0 L 111.703125 0 C 106.347656 0 101.882812 -1.113281 98.3125 -3.34375 C 94.738281 -5.570312 91.675781 -8.375 89.125 -11.75 C 86.570312 -15.132812 84.023438 -18.550781 81.484375 -22 L 48 -70.578125 L 39.96875 -61.59375 L 39.96875 -12.8125 C 39.96875 -8.476562 41.050781 -5.671875 43.21875 -4.390625 C 45.394531 -3.117188 48.773438 -2.484375 53.359375 -2.484375 L 53.359375 0 L 5.734375 0 L 5.734375 -2.484375 C 10.328125 -2.484375 13.675781 -3.117188 15.78125 -4.390625 C 17.882812 -5.671875 18.9375 -8.476562 18.9375 -12.8125 Z M 18.9375 -12.8125 "/></g></g></g></g></g><g clip-path="url(#b3272a2b1d)"><g transform="matrix(1, 0, 0, 1, 2, 81)"><g clip-path="url(#12694429ee)"><g clip-path="url(#4b530fb971)"><path fill="#ff3131" d="M 308.113281 113.132812 C 310.378906 113.796875 312.714844 114.300781 315.09375 114.636719 C 317.4375 114.96875 319.824219 115.144531 322.238281 115.144531 C 336.167969 115.144531 348.78125 109.496094 357.910156 100.367188 C 367.039062 91.238281 372.683594 78.628906 372.683594 64.695312 C 372.683594 50.765625 367.039062 38.152344 357.910156 29.023438 C 348.78125 19.894531 336.167969 14.25 322.238281 14.25 C 314.496094 14.25 307.15625 15.996094 300.59375 19.117188 C 293.78125 22.359375 287.804688 27.085938 283.09375 32.878906 C 268.820312 50.171875 257.191406 68.324219 245.570312 86.460938 C 221.628906 123.835938 197.714844 161.15625 150.980469 190.308594 C 146.714844 192.636719 142.253906 194.664062 137.632812 196.355469 C 126.933594 200.277344 115.371094 202.417969 103.304688 202.417969 C 75.753906 202.417969 50.808594 191.25 32.757812 173.195312 C 14.699219 155.140625 3.535156 130.195312 3.535156 102.648438 C 3.535156 75.09375 14.703125 50.152344 32.757812 32.097656 C 49.835938 15.019531 73.074219 4.105469 98.859375 2.976562 C 96.828125 4.441406 95.507812 6.828125 95.507812 9.523438 C 95.507812 13.988281 99.125 17.601562 103.585938 17.601562 C 108.046875 17.601562 111.664062 13.988281 111.664062 9.523438 C 111.664062 5.640625 108.921875 2.398438 105.269531 1.621094 L 105.289062 0.355469 L 103.308594 0.332031 C 75.058594 0.332031 49.476562 11.785156 30.960938 30.300781 C 12.445312 48.816406 0.992188 74.394531 0.992188 102.652344 C 0.992188 130.902344 12.445312 156.484375 30.960938 175 C 49.476562 193.515625 75.054688 204.96875 103.308594 204.96875 C 115.675781 204.96875 127.535156 202.773438 138.515625 198.75 C 149.894531 194.578125 160.332031 188.445312 169.40625 180.757812 C 205.722656 153.378906 226.703125 120.632812 247.714844 87.84375 C 259.304688 69.753906 270.898438 51.652344 285.0625 34.492188 L 284.082031 33.6875 L 285.066406 34.488281 C 289.539062 28.992188 295.210938 24.503906 301.683594 21.425781 C 307.90625 18.464844 314.882812 16.804688 322.242188 16.804688 C 335.472656 16.804688 347.449219 22.167969 356.117188 30.835938 C 364.785156 39.503906 370.148438 51.480469 370.148438 64.707031 C 370.148438 77.9375 364.785156 89.910156 356.117188 98.582031 C 347.449219 107.25 335.472656 112.609375 322.242188 112.609375 C 319.921875 112.609375 317.652344 112.449219 315.449219 112.136719 C 313.179688 111.816406 310.96875 111.335938 308.828125 110.710938 L 308.121094 113.148438 Z M 308.113281 113.132812 " fill-opacity="1" fill-rule="nonzero"/></g></g></g></g><g transform="matrix(1, 0, 0, 1, 230, 124)"><g clip-path="url(#a48fac9f37)"><g clip-path="url(#8464ad9060)"><g fill="#ffde59" fill-opacity="1"><g transform="translate(1.077415, 158.42463)"><g><path d="M 35.5 0 L 3.109375 0 L 3.109375 -2.703125 C 6.566406 -2.703125 10.0625 -3.945312 13.59375 -6.4375 C 17.125 -8.925781 19.648438 -12.039062 21.171875 -15.78125 L 66.421875 -124.125 L 60.609375 -138.25 C 58.953125 -142.394531 56.394531 -145.160156 52.9375 -146.546875 C 49.476562 -147.929688 45.671875 -148.625 41.515625 -148.625 L 41.515625 -151.328125 L 77.84375 -151.328125 L 132.4375 -20.96875 C 135.34375 -14.1875 138.554688 -9.445312 142.078125 -6.75 C 145.609375 -4.050781 149.9375 -2.703125 155.0625 -2.703125 L 155.0625 0 L 96.734375 0 L 96.734375 -2.703125 L 102.34375 -2.703125 C 107.738281 -2.703125 110.816406 -4.460938 111.578125 -7.984375 C 112.335938 -11.515625 111.675781 -15.773438 109.59375 -20.765625 L 97.765625 -49.609375 L 37.984375 -49.609375 L 24.28125 -16.609375 C 22.488281 -12.179688 22.835938 -8.753906 25.328125 -6.328125 C 27.816406 -3.910156 31.207031 -2.703125 35.5 -2.703125 Z M 67.875 -121.015625 L 39.234375 -52.3125 L 96.53125 -52.3125 Z M 67.875 -121.015625 "/></g></g></g></g></g></g><g transform="matrix(1, 0, 0, 1, 124, 64)"><g clip-path="url(#cd9a460b11)"><g fill="#ffde59" fill-opacity="1"><g transform="translate(0.948854, 145.496745)"><g><path d="M 5.734375 0 L 5.734375 -2.484375 C 9.941406 -2.484375 13.128906 -2.992188 15.296875 -4.015625 C 17.460938 -5.035156 18.738281 -7.332031 19.125 -10.90625 L 18.9375 -126.625 C 18.9375 -131.082031 17.882812 -133.914062 15.78125 -135.125 C 13.675781 -136.34375 10.328125 -136.953125 5.734375 -136.953125 L 5.734375 -139.4375 L 104.625 -139.4375 L 114.765625 -109.21875 L 112.265625 -109.21875 C 109.972656 -116.476562 107.359375 -122.117188 104.421875 -126.140625 C 101.492188 -130.160156 97.765625 -132.929688 93.234375 -134.453125 C 88.710938 -135.984375 82.816406 -136.75 75.546875 -136.75 C 66.367188 -136.75 59.226562 -136.523438 54.125 -136.078125 C 49.03125 -135.640625 45.429688 -134.71875 43.328125 -133.3125 C 41.222656 -131.90625 40.171875 -129.675781 40.171875 -126.625 L 40.171875 -74.40625 L 62.15625 -74.40625 C 69.039062 -74.53125 74.046875 -75.675781 77.171875 -77.84375 C 80.296875 -80.007812 82.238281 -83.257812 83 -87.59375 C 83.769531 -91.9375 84.15625 -97.296875 84.15625 -103.671875 L 86.640625 -103.671875 L 86.640625 -40.359375 L 84.15625 -40.359375 C 84.15625 -46.859375 83.835938 -52.46875 83.203125 -57.1875 C 82.566406 -61.90625 80.75 -65.539062 77.75 -68.09375 C 74.75 -70.644531 69.550781 -71.921875 62.15625 -71.921875 L 40.171875 -71.921875 L 40.171875 -12.8125 C 40.171875 -8.476562 42.019531 -5.671875 45.71875 -4.390625 C 49.414062 -3.117188 56.109375 -2.484375 65.796875 -2.484375 C 76.765625 -2.484375 85.722656 -4.8125 92.671875 -9.46875 C 99.617188 -14.125 105.226562 -20.4375 109.5 -28.40625 C 113.769531 -36.375 117.375 -45.203125 120.3125 -54.890625 L 122.796875 -54.890625 L 109.21875 0 Z M 5.734375 0 "/></g></g></g></g></g></svg>